# xmcd
#
# Track frame offsets: 
#        150
#        11214
#        21901
#        32093
#        43654
#        52801
#        61767
#        72988
#        86083
#        96438
#        109242
#        120360
#        131499
#        142523
#        154129
#        165150
#        176051
#        186853
#
# Disc length: 2667 seconds
#
# Revision: 0
# Processed by: cddbd v1.5.2PL0 Copyright (c) Steve Scherf et al.
# Submitted via: ExactAudioCopy v1.0b4
#
DISCID=e80a6912
DTITLE=Patsy Cline - At Her Best - Volume 2
DYEAR=2001
DGENRE=Country
TTITLE0=Stop The World
TTITLE1=I Can See An Angel
TTITLE2=Three Cigarettes (In An Ashtray)
TTITLE3=I've Loved And Lost Again
TTITLE4=I Love You, Honey
TTITLE5=Try Again
TTITLE6=Just Out Of Reach
TTITLE7=If I Could See The World (Trough The Eyes Of A Child) 
TTITLE8=Walking Dream
TTITLE9=Yes, I Understand
TTITLE10=Hidin' Out
TTITLE11=Stop, Look And Listen
TTITLE12=I Can't Forget
TTITLE13=In Care Of The Blues
TTITLE14=Pick Me Up On Your Way Down
TTITLE15=I Cried All The Way To The Altar
TTITLE16=Honky Tonk Mary-Go-Round
TTITLE17=Life's Railway To Heaven
EXTD=
EXTT0=
EXTT1=
EXTT2=
EXTT3=
EXTT4=
EXTT5=
EXTT6=
EXTT7=
EXTT8=
EXTT9=
EXTT10=
EXTT11=
EXTT12=
EXTT13=
EXTT14=
EXTT15=
EXTT16=
EXTT17=
PLAYORDER=
